<?xml version="1.0" encoding="UTF-8"?><svg id="Layer_2" xmlns="http://www.w3.org/2000/svg" viewBox="0 0 1168.6 801.18"><defs><style>.cls-1{fill:#fff;}</style></defs><g id="Layer_1-2"><g><path class="cls-1" d="M266.11,255.56c0-44.92,1.93-175.33,46.42-199.16,56.49-30.27,130.09-46.45,161.72-46.45s25.13,28.39,19.31,54.29-22.01,26.45-74.7,44-75.33,27.24-75.33,76.83-8.01,142.89,19.86,152.13c39.33,13.04,111.27-12.47,117.44,21.5,3.51,19.3,3.22,42.93-8.51,54.19-9.12,8.76-34.38,10.21-57.23,10.21-52.22,0-66.19,2.55-78.73,77.27s-42.13,149.75-21.92,172.8c22.59,25.75,46.77,32.57,88.66,35.42s56.69,20.07,50.87,43.98c-6.13,25.19-2.92,60.23-97.99,29.69s-132.84-59.04-125.24-104.09c7.6-45.05,44.66-163.78,39.8-230.4-7.73-105.82-4.42-135.13-4.42-192.2Z"/><path class="cls-1" d="M64.48,429.63c14,89.86,53.32,130.48,110.43,187.59,28.36,28.36,36.98,92.26-3.91,75.29-40.89-16.97-111.51-75.57-138.13-146.39s-49.69-154.16-16.22-237.54c33.48-83.38,61.03-101.2,82.53-49.13,21.5,52.07,22.43,9.3,25.29-20.68,2.86-29.97,4.98-91.03,66.28-128.08,61.3-37.05,58.79,7.2,49.73,73.78s-6.1,138.18,.25,215.1c7.77,93.98-8.87,212.84-49.59,177.36-40.72-35.48-25.01-93.94-21.74-144.39,3.27-50.45,12.15-117.23-12.1-102.49s-4.18,80.83-31.53,85.7-22.09-38.51-40.68-36.7-24.4,26.25-20.61,50.59Z"/><path class="cls-1" d="M674.92,10.05S589.98-1.54,568.02,.17s-49.85,.94-47.23,43.79,23.99,38.64,47.66,38.64,100.18-5.45,98.75,36.06-7.29,110.25-11.16,140.82c-5.92,46.72,6.14,72.85-67.75,71.84-47.27-.65-84.62,4.78-84.62,27.99,0,38.57-5.28,61.46,67.21,56.31,53.01-3.76,69.27,7.15,69.27,51.66s2.89,128.23,1.06,172.48,1.52,82.34-59.77,82.34-101.46-9.29-103.66,26.75,11.61,46.66,42.22,48.49,145.03,9.41,169.28-3.76,43.9-27.08,38.04-86.94-2.64-388.09,4.56-517.54c6.37-114.55,46.13-166.09-56.95-179.06Z"/><path class="cls-1" d="M895.04,78.14c-95.58-44.99-114.54,2.31-120.53,26.02s-18.85,199.17-18.85,301.76c0,0-7.63,263.92,4.62,321.41s34.1,49.94,55.07,40.51c20.97-9.43,41.12-21.26,29.1-83.85-12.02-62.58-20.92-147.35-16.52-177.58,4.4-30.23,16.79-31.13,54.6-49.56,37.81-18.43,134.45-92.1,134.45-172.99s-26.36-160.74-121.94-205.73Zm44.52,230.82c-17.11,34.88-57.18,74-87.45,76.64-26.09,2.27-28.99-14.66-26.39-69.74s2.44-86.47,3.96-118.73c0,0-.37-80.92,60.08-35.02s65.89,114.03,49.79,146.85Z"/><path class="cls-1" d="M860.47,609.36c-5.24-70.38-11.11-89.04,4.09-104.94,23.15-23.15,62.73-15.56,66.35,23.15s2.09,140.74,48.67,105.42,.73-80.1-6.03-107.99c-6.75-27.88-7.3-69.79,20.78-110.96,28.08-41.16,49.33-71.38,53.79-126.68,3.87-48.04,43.62-42.93,68.81,0,18.16,30.94,82.21,150.85,34.13,233.01-34,58.09-61.13,26.27-58.86-1.39,2.27-27.66,14.55-78.19,7.24-102.5-8.32-27.67-19.36-25.49-34.52,10.43-15.16,35.92-24.82,72.92-5.17,121.27,19.65,48.36,26.88,105.77-42.18,155.26-69.05,49.49-149.74-1.93-157.12-94.08Z"/></g></g></svg>